<?xml version="1.0" encoding="us-ascii" standalone="no"?><svg xmlns="http://www.w3.org/2000/svg" xmlns:xlink="http://www.w3.org/1999/xlink" contentStyleType="text/css" height="508px" preserveAspectRatio="none" style="width:442px;height:508px;background:#FFFFFF;" version="1.1" viewBox="0 0 442 508" width="442px" zoomAndPan="magnify"><defs/><g><rect fill="#FFFFFF" height="87.3984" style="stroke:#181818;stroke-width:1.0;" width="10" x="236.5" y="112.4297"/><rect fill="#FFFFFF" height="29.1328" style="stroke:#181818;stroke-width:1.0;" width="10" x="414.5" y="141.5625"/><line style="stroke:#181818;stroke-width:0.5;stroke-dasharray:5.0,5.0;" x1="25" x2="25" y1="81.2969" y2="207.8281"/><line style="stroke:#A80036;stroke-width:1.0;stroke-dasharray:1.0,4.0;" x1="25" x2="25" y1="207.8281" y2="248.6328"/><line style="stroke:#181818;stroke-width:0.5;stroke-dasharray:5.0,5.0;" x1="25" x2="25" y1="248.6328" y2="287.7656"/><line style="stroke:#A80036;stroke-width:1.0;stroke-dasharray:1.0,4.0;" x1="25" x2="25" y1="287.7656" y2="328.5703"/><line style="stroke:#181818;stroke-width:0.5;stroke-dasharray:5.0,5.0;" x1="25" x2="25" y1="328.5703" y2="427.7031"/><line style="stroke:#181818;stroke-width:0.5;stroke-dasharray:5.0,5.0;" x1="241" x2="241" y1="81.2969" y2="207.8281"/><line style="stroke:#A80036;stroke-width:1.0;stroke-dasharray:1.0,4.0;" x1="241" x2="241" y1="207.8281" y2="248.6328"/><line style="stroke:#181818;stroke-width:0.5;stroke-dasharray:5.0,5.0;" x1="241" x2="241" y1="248.6328" y2="287.7656"/><line style="stroke:#A80036;stroke-width:1.0;stroke-dasharray:1.0,4.0;" x1="241" x2="241" y1="287.7656" y2="328.5703"/><line style="stroke:#181818;stroke-width:0.5;stroke-dasharray:5.0,5.0;" x1="241" x2="241" y1="328.5703" y2="427.7031"/><line style="stroke:#181818;stroke-width:0.5;stroke-dasharray:5.0,5.0;" x1="419" x2="419" y1="81.2969" y2="207.8281"/><line style="stroke:#A80036;stroke-width:1.0;stroke-dasharray:1.0,4.0;" x1="419" x2="419" y1="207.8281" y2="248.6328"/><line style="stroke:#181818;stroke-width:0.5;stroke-dasharray:5.0,5.0;" x1="419" x2="419" y1="248.6328" y2="287.7656"/><line style="stroke:#A80036;stroke-width:1.0;stroke-dasharray:1.0,4.0;" x1="419" x2="419" y1="287.7656" y2="328.5703"/><line style="stroke:#181818;stroke-width:0.5;stroke-dasharray:5.0,5.0;" x1="419" x2="419" y1="328.5703" y2="427.7031"/><text fill="#000000" font-family="sans-serif" font-size="14" lengthAdjust="spacing" textLength="35" x="5" y="77.9951">Alice</text><ellipse cx="25.5" cy="13.5" fill="#E2E2F0" rx="8" ry="8" style="stroke:#181818;stroke-width:0.5;"/><path d="M25.5,21.5 L25.5,48.5 M12.5,29.5 L38.5,29.5 M25.5,48.5 L12.5,63.5 M25.5,48.5 L38.5,63.5 " fill="none" style="stroke:#181818;stroke-width:0.5;"/><text fill="#000000" font-family="sans-serif" font-size="14" lengthAdjust="spacing" textLength="35" x="5" y="439.6982">Alice</text><ellipse cx="25.5" cy="451.5" fill="#E2E2F0" rx="8" ry="8" style="stroke:#181818;stroke-width:0.5;"/><path d="M25.5,459.5 L25.5,486.5 M12.5,467.5 L38.5,467.5 M25.5,486.5 L12.5,501.5 M25.5,486.5 L38.5,501.5 " fill="none" style="stroke:#181818;stroke-width:0.5;"/><text fill="#000000" font-family="sans-serif" font-size="14" lengthAdjust="spacing" textLength="29" x="224" y="77.9951">Bob</text><ellipse cx="241.5" cy="13.5" fill="#E2E2F0" rx="8" ry="8" style="stroke:#181818;stroke-width:0.5;"/><path d="M241.5,21.5 L241.5,48.5 M228.5,29.5 L254.5,29.5 M241.5,48.5 L228.5,63.5 M241.5,48.5 L254.5,63.5 " fill="none" style="stroke:#181818;stroke-width:0.5;"/><text fill="#000000" font-family="sans-serif" font-size="14" lengthAdjust="spacing" textLength="29" x="224" y="439.6982">Bob</text><ellipse cx="241.5" cy="451.5" fill="#E2E2F0" rx="8" ry="8" style="stroke:#181818;stroke-width:0.5;"/><path d="M241.5,459.5 L241.5,486.5 M228.5,467.5 L254.5,467.5 M241.5,486.5 L228.5,501.5 M241.5,486.5 L254.5,501.5 " fill="none" style="stroke:#181818;stroke-width:0.5;"/><text fill="#000000" font-family="sans-serif" font-size="14" lengthAdjust="spacing" textLength="37" x="398" y="77.9951">Clare</text><ellipse cx="419.5" cy="13.5" fill="#E2E2F0" rx="8" ry="8" style="stroke:#181818;stroke-width:0.5;"/><path d="M419.5,21.5 L419.5,48.5 M406.5,29.5 L432.5,29.5 M419.5,48.5 L406.5,63.5 M419.5,48.5 L432.5,63.5 " fill="none" style="stroke:#181818;stroke-width:0.5;"/><text fill="#000000" font-family="sans-serif" font-size="14" lengthAdjust="spacing" textLength="37" x="398" y="439.6982">Clare</text><ellipse cx="419.5" cy="451.5" fill="#E2E2F0" rx="8" ry="8" style="stroke:#181818;stroke-width:0.5;"/><path d="M419.5,459.5 L419.5,486.5 M406.5,467.5 L432.5,467.5 M419.5,486.5 L406.5,501.5 M419.5,486.5 L432.5,501.5 " fill="none" style="stroke:#181818;stroke-width:0.5;"/><rect fill="#FFFFFF" height="87.3984" style="stroke:#181818;stroke-width:1.0;" width="10" x="236.5" y="112.4297"/><rect fill="#FFFFFF" height="29.1328" style="stroke:#181818;stroke-width:1.0;" width="10" x="414.5" y="141.5625"/><polygon fill="#181818" points="224.5,108.4297,234.5,112.4297,224.5,116.4297,228.5,112.4297" style="stroke:#181818;stroke-width:1.0;"/><line style="stroke:#181818;stroke-width:1.0;" x1="25.5" x2="230.5" y1="112.4297" y2="112.4297"/><text fill="#000000" font-family="sans-serif" font-size="13" lengthAdjust="spacing" textLength="109" x="32.5" y="107.3638">Tell Clare "Hello!"</text><polygon fill="#181818" points="402.5,137.5625,412.5,141.5625,402.5,145.5625,406.5,141.5625" style="stroke:#181818;stroke-width:1.0;"/><line style="stroke:#181818;stroke-width:1.0;" x1="246.5" x2="408.5" y1="141.5625" y2="141.5625"/><text fill="#000000" font-family="sans-serif" font-size="13" lengthAdjust="spacing" textLength="117" x="253.5" y="136.4966">Clare says "Hello!"</text><polygon fill="#181818" points="257.5,166.6953,247.5,170.6953,257.5,174.6953,253.5,170.6953" style="stroke:#181818;stroke-width:1.0;"/><line style="stroke:#181818;stroke-width:1.0;stroke-dasharray:2.0,2.0;" x1="251.5" x2="418.5" y1="170.6953" y2="170.6953"/><text fill="#000000" font-family="sans-serif" font-size="13" lengthAdjust="spacing" textLength="144" x="263.5" y="165.6294">Hello to you too, Alice!</text><polygon fill="#181818" points="36.5,195.8281,26.5,199.8281,36.5,203.8281,32.5,199.8281" style="stroke:#181818;stroke-width:1.0;"/><line style="stroke:#181818;stroke-width:1.0;stroke-dasharray:2.0,2.0;" x1="30.5" x2="240.5" y1="199.8281" y2="199.8281"/><text fill="#000000" font-family="sans-serif" font-size="13" lengthAdjust="spacing" textLength="187" x="42.5" y="194.7622">Clare says "Hello to you too!"</text><text fill="#000000" font-family="sans-serif" font-size="11" lengthAdjust="spacing" textLength="93" x="176" y="232.0386">Wait 10 minutes</text><polygon fill="#181818" points="407.6047,275.5132,417.5,279.7656,407.4017,283.5106,411.5019,279.6134" style="stroke:#181818;stroke-width:1.0;"/><line style="stroke:#181818;stroke-width:1.0;stroke-dasharray:2.0,2.0;" x1="25.5" x2="417.5" y1="269.7656" y2="279.7656"/><text fill="#000000" font-family="sans-serif" font-size="13" lengthAdjust="spacing" textLength="106" x="32.5" y="264.6997">Texts "Hi again!"</text><text fill="#000000" font-family="sans-serif" font-size="11" lengthAdjust="spacing" textLength="68" x="188.5" y="311.9761">5 mins later</text><polygon fill="#181818" points="36.1674,374.9554,26.5,379.7031,36.7748,382.9324,32.4827,379.2476" style="stroke:#181818;stroke-width:1.0;"/><line style="stroke:#181818;stroke-width:1.0;stroke-dasharray:2.0,2.0;" x1="418.5" x2="25.5" y1="349.7031" y2="379.7031"/><text fill="#000000" font-family="sans-serif" font-size="13" lengthAdjust="spacing" textLength="238" x="42.5" y="344.6372">Texts "Sorry I missed your question!"</text><!--SRC=[ROyn3u8m48Nt_eg32HCX4EF2OA8kEalYNELYcbGQssBattiz2Z661IwzzxttJjwziR3Nwev2ydmmjpWTjRGe12yXtuLD3GrgFMuWFT5iaZJ8rLjwP5RG9wXPKqUfauDRqCU4KPDF4Im3Rs0mFVtCUkoNY1R_ISuYZWKBOJykbFl3SzEYAE0gbOUgXAVgUeyEw6q-ETzbLRcQBcdmuuEl0lcGgYC_DjW6r84cLylqV4ss8JWsY_35M3l0cH3di0tLBBnwT5uPClm2]--></g></svg>