<?xml version="1.0" encoding="us-ascii" standalone="no"?><svg xmlns="http://www.w3.org/2000/svg" xmlns:xlink="http://www.w3.org/1999/xlink" contentStyleType="text/css" height="224px" preserveAspectRatio="none" style="width:107px;height:224px;background:#FFFFFF;" version="1.1" viewBox="0 0 107 224" width="107px" zoomAndPan="magnify"><defs/><g><line style="stroke:#181818;stroke-width:0.5;stroke-dasharray:5.0,5.0;" x1="23" x2="23" y1="81.2969" y2="143.4297"/><text fill="#000000" font-family="sans-serif" font-size="14" lengthAdjust="spacing" textLength="30" x="5" y="77.9951">Billy</text><ellipse cx="23" cy="13.5" fill="#E2E2F0" rx="8" ry="8" style="stroke:#181818;stroke-width:0.5;"/><path d="M23,21.5 L23,48.5 M10,29.5 L36,29.5 M23,48.5 L10,63.5 M23,48.5 L36,63.5 " fill="none" style="stroke:#181818;stroke-width:0.5;"/><text fill="#000000" font-family="sans-serif" font-size="14" lengthAdjust="spacing" textLength="30" x="5" y="155.4248">Billy</text><ellipse cx="23" cy="167.2266" fill="#E2E2F0" rx="8" ry="8" style="stroke:#181818;stroke-width:0.5;"/><path d="M23,175.2266 L23,202.2266 M10,183.2266 L36,183.2266 M23,202.2266 L10,217.2266 M23,202.2266 L36,217.2266 " fill="none" style="stroke:#181818;stroke-width:0.5;"/><line style="stroke:#181818;stroke-width:1.0;" x1="23" x2="65" y1="112.4297" y2="112.4297"/><line style="stroke:#181818;stroke-width:1.0;" x1="65" x2="65" y1="112.4297" y2="125.4297"/><line style="stroke:#181818;stroke-width:1.0;" x1="24" x2="65" y1="125.4297" y2="125.4297"/><polygon fill="#181818" points="34,121.4297,24,125.4297,34,129.4297,30,125.4297" style="stroke:#181818;stroke-width:1.0;"/><text fill="#000000" font-family="sans-serif" font-size="13" lengthAdjust="spacing" textLength="70" x="30" y="107.3638">Talk to self</text><!--SRC=[IqmkoIzISChCoQdauW9J2hfs4BwLGaXYJhP2IRv2SMfE6W00]--></g></svg>