<?xml version="1.0" encoding="us-ascii" standalone="no"?><svg xmlns="http://www.w3.org/2000/svg" xmlns:xlink="http://www.w3.org/1999/xlink" contentStyleType="text/css" height="382px" preserveAspectRatio="none" style="width:453px;height:382px;background:#FFFFFF;" version="1.1" viewBox="0 0 453 382" width="453px" zoomAndPan="magnify"><defs/><g><rect fill="#FFFFFF" height="87.3984" style="stroke:#181818;stroke-width:1.0;" width="10" x="235.5" y="112.4297"/><rect fill="#FFFFFF" height="29.1328" style="stroke:#181818;stroke-width:1.0;" width="10" x="378.5" y="141.5625"/><line style="stroke:#181818;stroke-width:0.5;stroke-dasharray:5.0,5.0;" x1="56" x2="56" y1="81.2969" y2="302.0938"/><line style="stroke:#181818;stroke-width:0.5;stroke-dasharray:5.0,5.0;" x1="240" x2="240" y1="81.2969" y2="302.0938"/><line style="stroke:#181818;stroke-width:0.5;stroke-dasharray:5.0,5.0;" x1="383" x2="383" y1="81.2969" y2="302.0938"/><line style="stroke:#181818;stroke-width:0.5;stroke-dasharray:5.0,5.0;" x1="433" x2="433" y1="81.2969" y2="302.0938"/><text fill="#000000" font-family="sans-serif" font-size="14" lengthAdjust="spacing" textLength="35" x="36" y="77.9951">Alice</text><ellipse cx="56.5" cy="13.5" fill="#E2E2F0" rx="8" ry="8" style="stroke:#181818;stroke-width:0.5;"/><path d="M56.5,21.5 L56.5,48.5 M43.5,29.5 L69.5,29.5 M56.5,48.5 L43.5,63.5 M56.5,48.5 L69.5,63.5 " fill="none" style="stroke:#181818;stroke-width:0.5;"/><text fill="#000000" font-family="sans-serif" font-size="14" lengthAdjust="spacing" textLength="35" x="36" y="314.0889">Alice</text><ellipse cx="56.5" cy="325.8906" fill="#E2E2F0" rx="8" ry="8" style="stroke:#181818;stroke-width:0.5;"/><path d="M56.5,333.8906 L56.5,360.8906 M43.5,341.8906 L69.5,341.8906 M56.5,360.8906 L43.5,375.8906 M56.5,360.8906 L69.5,375.8906 " fill="none" style="stroke:#181818;stroke-width:0.5;"/><text fill="#000000" font-family="sans-serif" font-size="14" lengthAdjust="spacing" textLength="29" x="223" y="77.9951">Bob</text><ellipse cx="240.5" cy="13.5" fill="#E2E2F0" rx="8" ry="8" style="stroke:#181818;stroke-width:0.5;"/><path d="M240.5,21.5 L240.5,48.5 M227.5,29.5 L253.5,29.5 M240.5,48.5 L227.5,63.5 M240.5,48.5 L253.5,63.5 " fill="none" style="stroke:#181818;stroke-width:0.5;"/><text fill="#000000" font-family="sans-serif" font-size="14" lengthAdjust="spacing" textLength="29" x="223" y="314.0889">Bob</text><ellipse cx="240.5" cy="325.8906" fill="#E2E2F0" rx="8" ry="8" style="stroke:#181818;stroke-width:0.5;"/><path d="M240.5,333.8906 L240.5,360.8906 M227.5,341.8906 L253.5,341.8906 M240.5,360.8906 L227.5,375.8906 M240.5,360.8906 L253.5,375.8906 " fill="none" style="stroke:#181818;stroke-width:0.5;"/><text fill="#000000" font-family="sans-serif" font-size="14" lengthAdjust="spacing" textLength="37" x="362" y="77.9951">Clare</text><ellipse cx="383.5" cy="13.5" fill="#E2E2F0" rx="8" ry="8" style="stroke:#181818;stroke-width:0.5;"/><path d="M383.5,21.5 L383.5,48.5 M370.5,29.5 L396.5,29.5 M383.5,48.5 L370.5,63.5 M383.5,48.5 L396.5,63.5 " fill="none" style="stroke:#181818;stroke-width:0.5;"/><text fill="#000000" font-family="sans-serif" font-size="14" lengthAdjust="spacing" textLength="37" x="362" y="314.0889">Clare</text><ellipse cx="383.5" cy="325.8906" fill="#E2E2F0" rx="8" ry="8" style="stroke:#181818;stroke-width:0.5;"/><path d="M383.5,333.8906 L383.5,360.8906 M370.5,341.8906 L396.5,341.8906 M383.5,360.8906 L370.5,375.8906 M383.5,360.8906 L396.5,375.8906 " fill="none" style="stroke:#181818;stroke-width:0.5;"/><text fill="#000000" font-family="sans-serif" font-size="14" lengthAdjust="spacing" textLength="30" x="415" y="77.9951">Billy</text><ellipse cx="433" cy="13.5" fill="#E2E2F0" rx="8" ry="8" style="stroke:#181818;stroke-width:0.5;"/><path d="M433,21.5 L433,48.5 M420,29.5 L446,29.5 M433,48.5 L420,63.5 M433,48.5 L446,63.5 " fill="none" style="stroke:#181818;stroke-width:0.5;"/><text fill="#000000" font-family="sans-serif" font-size="14" lengthAdjust="spacing" textLength="30" x="415" y="314.0889">Billy</text><ellipse cx="433" cy="325.8906" fill="#E2E2F0" rx="8" ry="8" style="stroke:#181818;stroke-width:0.5;"/><path d="M433,333.8906 L433,360.8906 M420,341.8906 L446,341.8906 M433,360.8906 L420,375.8906 M433,360.8906 L446,375.8906 " fill="none" style="stroke:#181818;stroke-width:0.5;"/><rect fill="#FFFFFF" height="87.3984" style="stroke:#181818;stroke-width:1.0;" width="10" x="235.5" y="112.4297"/><rect fill="#FFFFFF" height="29.1328" style="stroke:#181818;stroke-width:1.0;" width="10" x="378.5" y="141.5625"/><polygon fill="#181818" points="223.5,108.4297,233.5,112.4297,223.5,116.4297,227.5,112.4297" style="stroke:#181818;stroke-width:1.0;"/><line style="stroke:#181818;stroke-width:1.0;" x1="56.5" x2="229.5" y1="112.4297" y2="112.4297"/><text fill="#000000" font-family="sans-serif" font-size="13" lengthAdjust="spacing" textLength="109" x="63.5" y="107.3638">Tell Clare "Hello!"</text><polygon fill="#181818" points="366.5,137.5625,376.5,141.5625,366.5,145.5625,370.5,141.5625" style="stroke:#181818;stroke-width:1.0;"/><line style="stroke:#181818;stroke-width:1.0;" x1="245.5" x2="372.5" y1="141.5625" y2="141.5625"/><text fill="#000000" font-family="sans-serif" font-size="13" lengthAdjust="spacing" textLength="114" x="252.5" y="136.4966">Alice says "Hello!"</text><polygon fill="#181818" points="256.5,166.6953,246.5,170.6953,256.5,174.6953,252.5,170.6953" style="stroke:#181818;stroke-width:1.0;"/><line style="stroke:#181818;stroke-width:1.0;stroke-dasharray:2.0,2.0;" x1="250.5" x2="382.5" y1="170.6953" y2="170.6953"/><text fill="#000000" font-family="sans-serif" font-size="13" lengthAdjust="spacing" textLength="74" x="262.5" y="165.6294">Hello, Alice!</text><polygon fill="#181818" points="67.5,195.8281,57.5,199.8281,67.5,203.8281,63.5,199.8281" style="stroke:#181818;stroke-width:1.0;"/><line style="stroke:#181818;stroke-width:1.0;stroke-dasharray:2.0,2.0;" x1="61.5" x2="239.5" y1="199.8281" y2="199.8281"/><text fill="#000000" font-family="sans-serif" font-size="13" lengthAdjust="spacing" textLength="155" x="73.5" y="194.7622">Clare says "Hello, Alice!"</text><path d="M5,212.8281 L5,237.8281 L108,237.8281 L108,222.8281 L98,212.8281 L5,212.8281 " fill="#FEFFDD" style="stroke:#181818;stroke-width:0.5;"/><path d="M98,212.8281 L98,222.8281 L108,222.8281 L98,212.8281 " fill="#FEFFDD" style="stroke:#181818;stroke-width:0.5;"/><text fill="#000000" font-family="sans-serif" font-size="13" lengthAdjust="spacing" textLength="82" x="11" y="229.895">wait 10 mins</text><polygon fill="#181818" points="371.7628,279.4907,381.5,284.0938,371.2745,287.4758,375.5112,283.7275" style="stroke:#181818;stroke-width:1.0;"/><line style="stroke:#181818;stroke-width:1.0;" x1="56.5" x2="381.5" y1="264.0938" y2="284.0938"/><text fill="#000000" font-family="sans-serif" font-size="13" lengthAdjust="spacing" textLength="106" x="63.5" y="259.0278">Texts "Hi again!"</text><!--SRC=[ROzB2i8m48RtESKaAmKBrMKNWdRZ0Ng1iGOP61D8GhMtDuz6YxW8_8JlVmoEmJeuCOrQODPdUrrKp-W-lyGy2v51Q8w9wc3Gp8K2TOdQIYKIJnC6dOFYItHckb837cV_Zozr9Qwf5HdR5QSKD_r3bu88Pw1RngmQgbMjlMcPC3OgEsbNlK-a0FiM7cJyzzBDeTtM_OD-XHHCW7Sa8zKR]--></g></svg>